<svg viewBox="0 0 126 131" fill="none" xmlns="http://www.w3.org/2000/svg">
<mask id="mask0_14_1008" style="mask-type:alpha" maskUnits="userSpaceOnUse" x="0" y="0" width="126" height="131">
<rect width="126" height="131" fill="#D9D9D9"/>
</mask>
<g mask="url(#mask0_14_1008)">
<path d="M117.975 130.469C118.299 114.714 115.517 99.0486 109.787 84.3686C104.057 69.6885 95.492 56.2808 84.5806 44.9108C73.6691 33.5409 60.6251 24.4315 46.1931 18.1027C31.7612 11.7739 16.2241 8.3496 0.468781 8.0254L0.425179 10.1443C15.9022 10.4628 31.165 13.8265 45.342 20.0436C59.519 26.2606 72.3327 35.2092 83.0514 46.3783C93.7702 57.5474 102.184 70.7184 107.813 85.1392C113.441 99.5599 116.174 114.948 115.856 130.425L117.975 130.469Z" fill="#0A0624"/>
<path d="M125.973 130.633C126.319 113.828 123.351 97.1185 117.239 81.4598C111.128 65.8011 101.991 51.4995 90.3526 39.3716C78.7137 27.2437 64.8001 17.5269 49.406 10.7762C34.012 4.02546 17.439 0.37291 0.633362 0.0270913L0.586853 2.28723C17.0957 2.62694 33.376 6.21499 48.4981 12.8465C63.6203 19.478 77.2882 29.0231 88.7215 40.9368C100.155 52.8506 109.13 66.8996 115.133 82.2818C121.137 97.6639 124.052 114.078 123.713 130.587L125.973 130.633Z" fill="#0A0624"/>
</g>
</svg>
