<svg width="22" height="22" viewBox="0 0 22 22" fill="none" xmlns="http://www.w3.org/2000/svg" id="fullscreen">
<path d="M15.9853 21.7202H6.01499C2.85261 21.7202 0.279785 19.1474 0.279785 15.985V6.0147C0.279785 2.85232 2.85257 0.279541 6.01499 0.279541H15.9852C19.1475 0.279541 21.7202 2.85232 21.7202 6.0147V15.985C21.7202 19.1474 19.1475 21.7202 15.9853 21.7202ZM6.01499 1.77959C3.67972 1.77959 1.77979 3.67943 1.77979 6.01474V15.985C1.77979 18.3203 3.67968 20.2203 6.01499 20.2203H15.9852C18.3204 20.2203 20.2202 18.3204 20.2202 15.985V6.0147C20.2202 3.67943 18.3204 1.77954 15.9852 1.77954H6.01499V1.77959Z" fill="white"/>
<path d="M18.0217 3.22838C18.4207 3.22838 18.7527 3.54281 18.7704 3.94542C18.7886 4.35924 18.4678 4.70949 18.054 4.72767L12.6815 4.96388C12.2674 4.98188 11.9174 4.66139 11.8993 4.24758C11.8811 3.83377 12.2018 3.48352 12.6156 3.46533L17.9882 3.22913C17.9994 3.22861 18.0106 3.22838 18.0217 3.22838Z" fill="white"/>
<path d="M9.35213 17.0345C9.75113 17.0345 10.0831 17.3488 10.1008 17.7515C10.1191 18.1653 9.79838 18.5155 9.38457 18.5337L4.01181 18.7705C3.59738 18.7891 3.24774 18.4681 3.22951 18.0542C3.21127 17.6404 3.53195 17.2902 3.94576 17.272L9.31852 17.0352C9.32982 17.0347 9.34103 17.0345 9.35213 17.0345Z" fill="white"/>
<path d="M18.0206 3.22853C18.0317 3.22853 18.0429 3.22877 18.0541 3.22928C18.4679 3.24747 18.7886 3.59767 18.7704 4.01153L18.534 9.3843C18.5158 9.79811 18.1649 10.1186 17.7518 10.1006C17.338 10.0824 17.0173 9.7322 17.0355 9.31835L17.2718 3.94558C17.2895 3.54302 17.6216 3.22853 18.0206 3.22853Z" fill="white"/>
<path d="M4.21466 11.8983C4.22581 11.8983 4.23697 11.8986 4.24817 11.8991C4.66199 11.9173 4.9827 12.2675 4.96447 12.6813L4.72813 18.0542C4.70994 18.468 4.35936 18.7887 3.94588 18.7705C3.53206 18.7523 3.21134 18.4021 3.22958 17.9882L3.46592 12.6154C3.48364 12.2128 3.81566 11.8983 4.21466 11.8983Z" fill="white"/>
<path d="M17.2483 4.00137C17.4403 4.00137 17.6322 4.07459 17.7786 4.22107C18.0715 4.51399 18.0715 4.98888 17.7786 5.28176L14.189 8.87098C13.8962 9.16381 13.4213 9.16376 13.1284 8.87093C12.8355 8.57801 12.8355 8.10312 13.1285 7.81024L16.718 4.22103C16.8644 4.07463 17.0564 4.00137 17.2483 4.00137Z" fill="white"/>
<path d="M8.34106 12.909C8.53302 12.909 8.72492 12.9823 8.87141 13.1287C9.16428 13.4216 9.16428 13.8965 8.87141 14.1894L5.2821 17.7786C4.98922 18.0715 4.51433 18.0715 4.22145 17.7786C3.92858 17.4857 3.92858 17.0108 4.22145 16.718L7.81077 13.1287C7.95716 12.9823 8.14911 12.909 8.34106 12.909Z" fill="white"/>
</svg>
