<svg viewBox="0 0 23 24" fill="none" xmlns="http://www.w3.org/2000/svg">
<path d="M17.2861 1.78701C17.2861 1.48841 17.1132 1.20552 16.846 1.0798C16.5631 0.938357 16.2488 0.985505 16.0131 1.17409L9.05103 6.72175L17.2861 14.9568V1.78701Z" fill="white"/>
<path d="M21.7714 21.661L1.34095 1.23058C1.03449 0.924118 0.5363 0.924118 0.229843 1.23058C-0.0766142 1.53703 -0.0766142 2.03522 0.229843 2.34168L5.17402 7.28742H4.71354C4.22636 7.28742 3.80203 7.50744 3.51915 7.85319C3.28341 8.12036 3.14197 8.48182 3.14197 8.859V15.1453C3.14197 16.0097 3.84918 16.7169 4.71354 16.7169H8.3596L16.0132 22.8303C16.1546 22.9403 16.3275 23.0032 16.5003 23.0032C16.6104 23.0032 16.7361 22.9717 16.8461 22.9246C17.1133 22.7989 17.2861 22.516 17.2861 22.2174V19.3995L20.6587 22.7721C20.8127 22.9262 21.0139 23.0032 21.2151 23.0032C21.4162 23.0032 21.6174 22.9262 21.7714 22.7737C22.0779 22.4657 22.0779 21.9691 21.7714 21.661Z" fill="white"/>
</svg>
