<svg width="211" height="40" viewBox="0 0 211 40" fill="none" xmlns="http://www.w3.org/2000/svg" id="play-btn">
<circle cx="190.661" cy="19.661" r="18.8665" stroke="white" stroke-width="1.58904"/>
<path d="M197.933 19.9305L187.025 28.3273L187.025 11.5336L197.933 19.9305Z" fill="white"/>
<path d="M7.488 26.252C9.81 26.252 11.682 25.406 12.906 23.876L10.638 21.824C9.846 22.778 8.874 23.3 7.668 23.3C5.598 23.3 4.158 21.86 4.158 19.7C4.158 17.54 5.598 16.1 7.668 16.1C8.874 16.1 9.846 16.622 10.638 17.576L12.906 15.524C11.682 13.994 9.81 13.148 7.488 13.148C3.492 13.148 0.558 15.866 0.558 19.7C0.558 23.534 3.492 26.252 7.488 26.252ZM29.168 26L29.132 13.4H26.198L21.878 20.672L17.45 13.4H14.516V26H17.792V19.466L21.032 24.758H22.616L25.856 19.322L25.874 26H29.168ZM38.04 26.252C42.072 26.252 45.042 23.48 45.042 19.7C45.042 15.92 42.072 13.148 38.04 13.148C34.008 13.148 31.038 15.92 31.038 19.7C31.038 23.48 34.008 26.252 38.04 26.252ZM38.04 23.3C36.132 23.3 34.638 21.878 34.638 19.7C34.638 17.522 36.132 16.1 38.04 16.1C39.948 16.1 41.442 17.522 41.442 19.7C41.442 21.878 39.948 23.3 38.04 23.3ZM56.9239 13.4H45.6919V16.226H49.5619V26H53.0719V16.226H56.9239V13.4ZM64.3268 13.4H58.5668V26H62.1308V22.706H64.3268C67.7648 22.706 69.9248 20.924 69.9248 18.062C69.9248 15.182 67.7648 13.4 64.3268 13.4ZM64.1108 19.898H62.1308V16.208H64.1108C65.5868 16.208 66.3248 16.892 66.3248 18.062C66.3248 19.214 65.5868 19.898 64.1108 19.898ZM71.5395 26H74.9055L80.0895 18.62V26H83.5995V13.4H80.2515L75.0495 20.798V13.4H71.5395V26ZM100.723 19.412C101.803 18.872 102.433 17.918 102.433 16.676C102.433 14.588 100.669 13.4 97.6634 13.4H91.5434V26H98.0054C101.245 26 103.009 24.614 103.009 22.4C103.009 20.888 102.181 19.88 100.723 19.412ZM95.0534 15.956H97.3214C98.3294 15.956 98.8334 16.388 98.8334 17.198C98.8334 18.026 98.3294 18.44 97.3214 18.44H95.0534V15.956ZM97.8614 23.444H95.0534V20.852H97.8614C98.8874 20.852 99.4094 21.266 99.4094 22.13C99.4094 22.994 98.8874 23.444 97.8614 23.444ZM104.938 26H108.304L113.488 18.62V26H116.998V13.4H113.65L108.448 20.798V13.4H104.938V26ZM131.494 23.174V13.4H121.342L121.198 17.288C121.072 20.654 120.658 23.138 119.056 23.174H118.606V28.538H121.882V26H129.946V28.538H133.204V23.174H131.494ZM124.312 17.594L124.366 16.226H127.984V23.174H123.214C123.952 22.112 124.222 20.06 124.312 17.594ZM138.437 23.246V20.942H144.035V18.278H138.437V16.154H144.791V13.4H134.909V26H145.025V23.246H138.437ZM153.23 26.252C157.262 26.252 160.232 23.48 160.232 19.7C160.232 15.92 157.262 13.148 153.23 13.148C149.198 13.148 146.228 15.92 146.228 19.7C146.228 23.48 149.198 26.252 153.23 26.252ZM153.23 23.3C151.322 23.3 149.828 21.878 149.828 19.7C149.828 17.522 151.322 16.1 153.23 16.1C155.138 16.1 156.632 17.522 156.632 19.7C156.632 21.878 155.138 23.3 153.23 23.3Z" fill="white"/>
</svg>
