<svg width="136" height="50" viewBox="0 0 136 50" fill="none" xmlns="http://www.w3.org/2000/svg">
<path d="M7.488 19.252C9.81 19.252 11.682 18.406 12.906 16.876L10.638 14.824C9.846 15.778 8.874 16.3 7.668 16.3C5.598 16.3 4.158 14.86 4.158 12.7C4.158 10.54 5.598 9.1 7.668 9.1C8.874 9.1 9.846 9.622 10.638 10.576L12.906 8.524C11.682 6.994 9.81 6.148 7.488 6.148C3.492 6.148 0.558 8.866 0.558 12.7C0.558 16.534 3.492 19.252 7.488 19.252ZM29.168 19L29.132 6.4H26.198L21.878 13.672L17.45 6.4H14.516V19H17.792V12.466L21.032 17.758H22.616L25.856 12.322L25.874 19H29.168ZM38.04 19.252C42.072 19.252 45.042 16.48 45.042 12.7C45.042 8.92 42.072 6.148 38.04 6.148C34.008 6.148 31.038 8.92 31.038 12.7C31.038 16.48 34.008 19.252 38.04 19.252ZM38.04 16.3C36.132 16.3 34.638 14.878 34.638 12.7C34.638 10.522 36.132 9.1 38.04 9.1C39.948 9.1 41.442 10.522 41.442 12.7C41.442 14.878 39.948 16.3 38.04 16.3ZM56.9239 6.4H45.6919V9.226H49.5619V19H53.0719V9.226H56.9239V6.4ZM64.3268 6.4H58.5668V19H62.1308V15.706H64.3268C67.7648 15.706 69.9248 13.924 69.9248 11.062C69.9248 8.182 67.7648 6.4 64.3268 6.4ZM64.1108 12.898H62.1308V9.208H64.1108C65.5868 9.208 66.3248 9.892 66.3248 11.062C66.3248 12.214 65.5868 12.898 64.1108 12.898ZM71.5395 19H74.9055L80.0895 11.62V19H83.5995V6.4H80.2515L75.0495 13.798V6.4H71.5395V19ZM10.53 37.412C11.61 36.872 12.24 35.918 12.24 34.676C12.24 32.588 10.476 31.4 7.47 31.4H1.35V44H7.812C11.052 44 12.816 42.614 12.816 40.4C12.816 38.888 11.988 37.88 10.53 37.412ZM4.86 33.956H7.128C8.136 33.956 8.64 34.388 8.64 35.198C8.64 36.026 8.136 36.44 7.128 36.44H4.86V33.956ZM7.668 41.444H4.86V38.852H7.668C8.694 38.852 9.216 39.266 9.216 40.13C9.216 40.994 8.694 41.444 7.668 41.444ZM14.7445 44H18.1105L23.2945 36.62V44H26.8045V31.4H23.4565L18.2545 38.798V31.4H14.7445V44ZM41.301 41.174V31.4H31.149L31.005 35.288C30.879 38.654 30.465 41.138 28.863 41.174H28.413V46.538H31.689V44H39.753V46.538H43.011V41.174H41.301ZM34.119 35.594L34.173 34.226H37.791V41.174H33.021C33.759 40.112 34.029 38.06 34.119 35.594ZM48.2432 41.246V38.942H53.8412V36.278H48.2432V34.154H54.5972V31.4H44.7152V44H54.8312V41.246H48.2432ZM63.0361 44.252C67.0681 44.252 70.0381 41.48 70.0381 37.7C70.0381 33.92 67.0681 31.148 63.0361 31.148C59.0041 31.148 56.0341 33.92 56.0341 37.7C56.0341 41.48 59.0041 44.252 63.0361 44.252ZM63.0361 41.3C61.1281 41.3 59.6341 39.878 59.6341 37.7C59.6341 35.522 61.1281 34.1 63.0361 34.1C64.9441 34.1 66.4381 35.522 66.4381 37.7C66.4381 39.878 64.9441 41.3 63.0361 41.3Z" fill="white"/>
<mask id="path-2-inside-1_29_1325" fill="white">
<path fill-rule="evenodd" clip-rule="evenodd" d="M113.119 47.2373C125.334 47.2373 135.237 37.3344 135.237 25.1186C135.237 12.9029 125.334 3 113.119 3C100.903 3 91 12.9029 91 25.1186C91 37.3344 100.903 47.2373 113.119 47.2373ZM109.028 34.8682L121.3 25.4218L109.028 15.9753V34.8682Z"/>
</mask>
<path fill-rule="evenodd" clip-rule="evenodd" d="M113.119 47.2373C125.334 47.2373 135.237 37.3344 135.237 25.1186C135.237 12.9029 125.334 3 113.119 3C100.903 3 91 12.9029 91 25.1186C91 37.3344 100.903 47.2373 113.119 47.2373ZM109.028 34.8682L121.3 25.4218L109.028 15.9753V34.8682Z" fill="white"/>
<path d="M121.3 25.4218L122.269 26.6809L123.905 25.4218L122.269 24.1626L121.3 25.4218ZM109.028 34.8682H107.439V38.0968L109.998 36.1274L109.028 34.8682ZM109.028 15.9753L109.998 14.7161L107.439 12.7467V15.9753H109.028ZM133.648 25.1186C133.648 36.4568 124.457 45.6482 113.119 45.6482V48.8263C126.212 48.8263 136.826 38.212 136.826 25.1186H133.648ZM113.119 4.58904C124.457 4.58904 133.648 13.7805 133.648 25.1186H136.826C136.826 12.0253 126.212 1.41096 113.119 1.41096V4.58904ZM92.589 25.1186C92.589 13.7805 101.78 4.58904 113.119 4.58904V1.41096C100.025 1.41096 89.411 12.0253 89.411 25.1186H92.589ZM113.119 45.6482C101.78 45.6482 92.589 36.4568 92.589 25.1186H89.411C89.411 38.212 100.025 48.8263 113.119 48.8263V45.6482ZM120.33 24.1626L108.059 33.6091L109.998 36.1274L122.269 26.6809L120.33 24.1626ZM108.059 17.2345L120.33 26.6809L122.269 24.1626L109.998 14.7161L108.059 17.2345ZM110.618 34.8682V15.9753H107.439V34.8682H110.618Z" fill="white" mask="url(#path-2-inside-1_29_1325)"/>
</svg>
