<svg viewBox="0 0 23 22" fill="none" xmlns="http://www.w3.org/2000/svg">
<path d="M13.3661 0.0760288C13.0993 -0.0512378 12.7849 -0.0175045 12.5549 0.168029L5.0968 6.13423H1.53333C0.688467 6.13423 0 6.82269 0 7.66756V13.8009C0 14.6473 0.688467 15.3342 1.53333 15.3342H5.0968L12.5534 21.3004C12.6929 21.4108 12.8631 21.4676 13.0333 21.4676C13.1468 21.4676 13.2603 21.4415 13.3661 21.3909C13.6313 21.2636 13.8 20.9953 13.8 20.7009V0.767562C13.8 0.473162 13.6313 0.204829 13.3661 0.0760288Z" fill="white"/>
<path d="M17.6809 5.31242C17.3788 5.01496 16.8943 5.01956 16.5968 5.31856C16.2993 5.62062 16.3024 6.10516 16.6029 6.40416C17.7621 7.54802 18.4 9.08596 18.4 10.7343C18.4 12.3826 17.7621 13.9206 16.6029 15.0644C16.3024 15.3604 16.2993 15.8464 16.5968 16.1485C16.7471 16.3003 16.9449 16.3754 17.1411 16.3754C17.3359 16.3754 17.5306 16.3018 17.6809 16.1531C19.1345 14.7225 19.9333 12.7966 19.9333 10.7343C19.9333 8.67196 19.1345 6.74609 17.6809 5.31242Z" fill="white"/>
<path d="M19.8443 3.15198C19.5423 2.85298 19.0577 2.85604 18.7587 3.15658C18.4613 3.45711 18.4643 3.94318 18.7633 4.24064C20.5067 5.96871 21.4666 8.27484 21.4666 10.7343C21.4666 13.1938 20.5067 15.4984 18.7633 17.2264C18.4643 17.5254 18.4613 18.0115 18.7587 18.312C18.9105 18.4623 19.1068 18.5374 19.3031 18.5374C19.4978 18.5374 19.6941 18.4638 19.8443 18.3151C21.8806 16.2988 22.9999 13.6062 22.9999 10.7343C22.9999 7.86238 21.8806 5.16984 19.8443 3.15198Z" fill="white"/>
</svg>
